# This file uses centimeters as units for non-parametric coordinates.

mtllib glass.mtl
g default
v -42386.914063 1784.875122 49261.457031
v -42444.609375 1785.883301 49262.203125
v -42388.296875 1705.668579 49261.953125
v -42445.984375 1706.676758 49262.699219
v -42386.937500 1784.864868 49259.773438
v -42444.632813 1785.872925 49260.515625
v -42388.312500 1705.658325 49260.273438
v -42446.007813 1706.666504 49261.015625
v -42444.382813 1798.810913 49262.121094
v -42386.687500 1797.802734 49261.375000
v -42442.164063 1926.510864 49261.312500
v -42384.468750 1925.502686 49260.566406
v -42444.406250 1798.800659 49260.429688
v -42386.710938 1797.792480 49259.687500
v -42442.187500 1926.500610 49259.628906
v -42384.492188 1925.492432 49258.882813
vt 0.798336 0.637095
vt 0.348783 0.637387
vt 0.348275 0.020994
vt 0.797417 0.020468
vt 0.810531 0.020449
vt 0.348273 0.007885
vt 0.335653 0.637395
vt 0.797489 0.651138
vt 0.797809 0.020419
vt 0.335163 0.021006
vt 0.797908 0.637285
vt 0.348755 0.650516
vt 0.348459 0.020482
vt 0.797413 0.007354
vt 0.348558 0.637349
vt 0.811474 0.637075
vt 0.032461 0.036877
vt 0.308976 0.036844
vt 0.309421 0.648434
vt 0.033041 0.648664
vt 0.308561 0.648672
vt 0.032122 0.648556
vt 0.032381 0.036718
vt 0.308820 0.036834
vt 0.024970 0.648672
vt 0.024377 0.036883
vt 0.317058 0.036838
vt 0.317491 0.648428
vt 0.033079 0.028522
vt 0.308977 0.028773
vt 0.309435 0.656503
vt 0.033056 0.656734
vn 0.013070 0.006035 0.999896
vn 0.013070 0.006035 0.999896
vn 0.013070 0.006035 0.999896
vn 0.013070 0.006035 0.999896
vn -0.012960 -0.006087 -0.999898
vn -0.012960 -0.006087 -0.999898
vn -0.012960 -0.006087 -0.999898
vn -0.012960 -0.006087 -0.999898
vn 0.999780 -0.017501 -0.011523
vn 0.999780 -0.017501 -0.011523
vn 0.999780 -0.017501 -0.011523
vn 0.999780 -0.017501 -0.011523
vn -0.999753 0.017449 0.013796
vn -0.999753 0.017449 0.013796
vn -0.999753 0.017449 0.013796
vn -0.999753 0.017449 0.013796
vn 0.017388 0.999829 -0.006345
vn 0.017388 0.999829 -0.006345
vn 0.017388 0.999829 -0.006345
vn 0.017388 0.999829 -0.006345
vn -0.017430 -0.999828 0.006360
vn -0.017430 -0.999828 0.006360
vn -0.017430 -0.999828 0.006360
vn -0.017430 -0.999828 0.006360
vn 0.013025 0.006105 0.999897
vn 0.013025 0.006105 0.999897
vn 0.013025 0.006105 0.999897
vn 0.013025 0.006105 0.999897
vn -0.013025 -0.006060 -0.999897
vn -0.013025 -0.006060 -0.999897
vn -0.013025 -0.006060 -0.999897
vn -0.013025 -0.006060 -0.999897
vn -0.999753 0.017424 0.013771
vn -0.999753 0.017424 0.013771
vn -0.999753 0.017424 0.013771
vn -0.999753 0.017424 0.013771
vn 0.999752 -0.017446 -0.013818
vn 0.999752 -0.017446 -0.013818
vn 0.999752 -0.017446 -0.013818
vn 0.999752 -0.017446 -0.013818
vn -0.017422 -0.999829 0.006218
vn -0.017422 -0.999829 0.006218
vn -0.017422 -0.999829 0.006218
vn -0.017422 -0.999829 0.006218
vn 0.017338 0.999830 -0.006313
vn 0.017338 0.999830 -0.006313
vn 0.017338 0.999830 -0.006313
vn 0.017338 0.999830 -0.006313
s off
g metal001_transition025_GRP_11_polySurface528 metal001_transition025_GRP_11 metal001_transitioners_GRP
usemtl aiStandardSurface9SG
f 1/1/1 2/2/2 4/3/3 3/4/4
f 7/13/5 8/9/6 6/11/7 5/15/8
f 5/16/9 1/1/10 3/4/11 7/5/12
f 2/2/13 6/7/14 8/10/15 4/3/16
f 1/1/17 5/8/18 6/12/19 2/2/20
f 7/14/21 3/4/22 4/3/23 8/6/24
f 9/17/25 10/18/26 12/19/27 11/20/28
f 14/21/29 13/22/30 15/23/31 16/24/32
f 9/17/33 11/20/34 15/25/35 13/26/36
f 12/19/37 10/18/38 14/27/39 16/28/40
f 10/18/41 9/17/42 13/29/43 14/30/44
f 11/20/45 12/19/46 16/31/47 15/32/48
